{"title":"Alpha and Omega 2010 CAM XviD Feel-Free","uid":5845763,"size":1202965123,"categoryP":"video","categoryS":"movies","magnet":"?xt=urn:btih:6fd0f6f1800165f4c1575f6ddfaabefa2132999a&amp;dn=Alpha+and+Omega+2010+CAM+XviD+Feel-Free&amp;tr=udp%3A%2F%2Ftracker.openbittorrent.com%3A80&amp;tr=udp%3A%2F%2Fopen.demonii.com%3A1337&amp;tr=udp%3A%2F%2Ftracker.coppersurfer.tk%3A6969&amp;tr=udp%3A%2F%2Fexodus.desync.com%3A6969","seeders":0,"leechers":0,"uploader":"hiest","files":-1,"time":1285169272,"description":"Genre:Animation | Adventure | Comedy | Family \nLanguage:English\nIMDb:http://www.imdb.com/title/tt1213012/\nSource:RUS/UNDEAD\nSample:Yes\n\nGeneral\nComplete name :Alpha and Omega 2010 CAM XviD Feel-Free\nFormat : AVI\nFormat/Info : Audio Video Interleave\nFile size : 750 MiB\nDuration : 1h 14mn\nOverall bit rate : 1 404 Kbps\nVideo #0\nCodec ID : XVID\nCodec ID/Hint : XviD\nDuration : 1h 14mn\nBit rate : 1 267 Kbps\nWidth : 652 pixels\nHeight : 352 pixels\nDisplay aspect ratio : 1.852\nFrame rate : 25.000 fps\nResolution : 24 bits\nColorimetry : 4:2:0\nScan type : Progressive\nBits/(Pixel*Frame) : 0.221\nStream size : 676 MiB (90%)\nWriting library : XviD 1.2.1 (UTC 2008-12-04)\nAudio #1\nID : 1\nFormat : AC-3\nFormat/Info : Audio Coding 3\nCodec ID : 2000\nDuration : 1h 14mn\nBit rate mode : Constant\nBit rate : 128 Kbps\nChannel(s) : 2 channels\nChannel positions : L R\nSampling rate : 48.0 KHz\nStream size : 68.3 MiB (9%)\nAlignment : Split accross interleaves\nInterleave, duration : 40 ms (1.00 video frame)\nInterleave, preload duration : 500 ms\nPlot\nTwo young wolves at opposite ends of their pack's social order are thrown together into a foreign land and need each other to return home, but love complicates everything\n\n\n\n\n\n\n\n\n\n================================== &lt;a href=&quot;\nhttp://thepiratebay.se/user/hiest&quot; rel=&quot;nofollow&quot; target=&quot;_NEW&quot;&gt;\nhttp://thepiratebay.se/user/hiest&lt;/a&gt;\n==================================\n\n","torrent":{"xt":"urn:btih:6fd0f6f1800165f4c1575f6ddfaabefa2132999a","amp;dn":"Alpha+and+Omega+2010+CAM+XviD+Feel-Free","amp;tr":["udp%3A%2F%2Ftracker.openbittorrent.com%3A80","udp%3A%2F%2Fopen.demonii.com%3A1337","udp%3A%2F%2Ftracker.coppersurfer.tk%3A6969","udp%3A%2F%2Fexodus.desync.com%3A6969"],"infoHash":"6fd0f6f1800165f4c1575f6ddfaabefa2132999a","infoHashBuffer":{"type":"Buffer","data":[111,208,246,241,128,1,101,244,193,87,95,109,223,170,190,250,33,50,153,154]},"announce":[],"urlList":[]}}